<svg width="17" height="17" viewBox="0 0 17 17" fill="none" xmlns="http://www.w3.org/2000/svg">
<path fill-rule="evenodd" clip-rule="evenodd" d="M15.5837 8.49996C15.5837 12.4121 12.4125 15.5833 8.50033 15.5833C4.5882 15.5833 1.41699 12.4121 1.41699 8.49996C1.41699 4.58783 4.5882 1.41663 8.50033 1.41663C12.4125 1.41663 15.5837 4.58783 15.5837 8.49996ZM8.50033 14.1666C10.0032 14.1666 11.4446 13.5696 12.5073 12.5069C13.57 11.4442 14.167 10.0029 14.167 8.49996C14.167 6.99707 13.57 5.55573 12.5073 4.49302C11.4446 3.43032 10.0032 2.83329 8.50033 2.83329C6.99743 2.83329 5.55609 3.43032 4.49339 4.49302C3.43068 5.55573 2.83366 6.99707 2.83366 8.49996C2.83366 10.0029 3.43068 11.4442 4.49339 12.5069C5.55609 13.5696 6.99743 14.1666 8.50033 14.1666Z" fill="black"/>
<path d="M7.79199 12.0416C7.79199 11.8537 7.86662 11.6736 7.99946 11.5407C8.1323 11.4079 8.31246 11.3333 8.50033 11.3333C8.68819 11.3333 8.86835 11.4079 9.00119 11.5407C9.13403 11.6736 9.20866 11.8537 9.20866 12.0416C9.20866 12.2294 9.13403 12.4096 9.00119 12.5425C8.86835 12.6753 8.68819 12.7499 8.50033 12.7499C8.31246 12.7499 8.1323 12.6753 7.99946 12.5425C7.86662 12.4096 7.79199 12.2294 7.79199 12.0416Z" fill="black"/>
<path fill-rule="evenodd" clip-rule="evenodd" d="M9.37153 5.61778C9.07119 5.45841 8.70003 5.40457 8.43228 5.41449C7.41228 5.45415 7.06307 6.07678 7.07369 6.33886C7.08102 6.52663 7.01345 6.70962 6.88586 6.84757C6.75827 6.98552 6.58111 7.06714 6.39334 7.07447C6.20557 7.08179 6.02258 7.01423 5.88463 6.88664C5.74668 6.75905 5.66506 6.58188 5.65773 6.39411C5.60673 5.07803 6.87748 4.05661 8.37773 3.99924C8.83107 3.98153 9.46432 4.06299 10.0367 4.36757C10.6359 4.68632 11.1721 5.25936 11.3039 6.1632C11.4264 7.00611 10.8782 7.64361 10.4149 7.98078C10.0607 8.23791 9.73844 8.5092 9.51178 8.80315C9.29007 9.09003 9.18736 9.36061 9.19798 9.63828C9.20091 9.82333 9.13129 10.0022 9.00402 10.1365C8.87675 10.2709 8.70195 10.3501 8.51702 10.3573C8.33208 10.3644 8.1517 10.2989 8.01447 10.1747C7.87724 10.0505 7.79406 9.87755 7.78273 9.69282C7.75511 8.98732 8.03419 8.3987 8.39048 7.93757C8.74111 7.48424 9.19161 7.11803 9.5819 6.8347C9.7094 6.7419 9.80148 6.64061 9.8539 6.55136C9.90278 6.46636 9.90773 6.4097 9.90207 6.3672C9.8454 5.98328 9.64423 5.76299 9.37153 5.61778Z" fill="black"/>
</svg>
