<svg width="17" height="17" viewBox="0 0 17 17" fill="none" xmlns="http://www.w3.org/2000/svg">
<g clip-path="url(#clip0_129_398)">
<path d="M5.69838 1.02613C4.09973 1.58071 2.72106 2.63333 1.76487 4.02938C0.808675 5.42542 0.325366 7.09131 0.38593 8.78233C0.446493 10.4734 1.04774 12.1004 2.10135 13.4245C3.15496 14.7485 4.6054 15.6998 6.23963 16.1386C7.56453 16.4805 8.95264 16.4955 10.2846 16.1824C11.4913 15.9113 12.6069 15.3316 13.5221 14.4999C14.4747 13.6078 15.1662 12.473 15.5221 11.2174C15.909 9.85196 15.9779 8.41604 15.7234 7.01988H8.28338V10.1061H12.5921C12.506 10.5984 12.3215 11.0682 12.0496 11.4874C11.7777 11.9067 11.4239 12.2668 11.0096 12.5461C10.4835 12.8942 9.89037 13.1283 9.26838 13.2336C8.64456 13.3496 8.0047 13.3496 7.38088 13.2336C6.74861 13.1029 6.1505 12.8419 5.62463 12.4674C4.77981 11.8694 4.14547 11.0198 3.81213 10.0399C3.47315 9.04162 3.47315 7.95938 3.81213 6.96113C4.04941 6.2614 4.44167 5.62429 4.95963 5.09738C5.55237 4.48331 6.30279 4.04437 7.12857 3.82872C7.95435 3.61307 8.82358 3.62904 9.64088 3.87488C10.2793 4.07086 10.8632 4.4133 11.3459 4.87488C11.8317 4.39154 12.3167 3.90696 12.8009 3.42113C13.0509 3.15988 13.3234 2.91113 13.5696 2.64363C12.8328 1.95797 11.968 1.42445 11.0246 1.07363C9.30676 0.449863 7.4271 0.4331 5.69838 1.02613Z" fill="white"/>
<path d="M5.69848 1.02624C7.42706 0.432816 9.30671 0.449138 11.0247 1.07249C11.9682 1.4257 12.8327 1.96179 13.5685 2.64999C13.3185 2.91749 13.0547 3.16749 12.7997 3.42749C12.3147 3.91166 11.8301 4.39416 11.346 4.87499C10.8633 4.41342 10.2794 4.07098 9.64098 3.87499C8.82395 3.6283 7.95475 3.6114 7.12875 3.82617C6.30275 4.04094 5.55187 4.47907 4.95848 5.09249C4.44052 5.61941 4.04826 6.25652 3.81098 6.95624L1.21973 4.94999C2.14724 3.1107 3.75316 1.70377 5.69848 1.02624Z" fill="#E33629"/>
<path d="M0.532926 6.9377C0.672203 6.24744 0.903431 5.57898 1.22043 4.9502L3.81168 6.96145C3.47269 7.9597 3.47269 9.04194 3.81168 10.0402C2.94834 10.7069 2.08459 11.3769 1.22043 12.0502C0.426864 10.4706 0.184842 8.67082 0.532926 6.9377Z" fill="#F8BD00"/>
<path d="M8.28376 7.01855H15.7238C15.9783 8.41472 15.9094 9.85064 15.5225 11.2161C15.1666 12.4717 14.4751 13.6065 13.5225 14.4986C12.6863 13.8461 11.8463 13.1986 11.01 12.5461C11.4246 12.2664 11.7785 11.9059 12.0504 11.4862C12.3223 11.0665 12.5067 10.5962 12.5925 10.1036H8.28376C8.28251 9.07605 8.28376 8.0473 8.28376 7.01855Z" fill="#587DBD"/>
<path d="M1.21875 12.05C2.08292 11.3834 2.94667 10.7134 3.81 10.04C4.14401 11.0203 4.77926 11.8699 5.625 12.4675C6.15251 12.8404 6.75191 13.0992 7.385 13.2275C8.00882 13.3435 8.64868 13.3435 9.2725 13.2275C9.89449 13.1223 10.4876 12.8881 11.0138 12.54C11.85 13.1925 12.69 13.84 13.5262 14.4925C12.6111 15.3247 11.4955 15.9049 10.2887 16.1763C8.95676 16.4894 7.56865 16.4744 6.24375 16.1325C5.19588 15.8528 4.21709 15.3595 3.36875 14.6838C2.47083 13.9709 1.73744 13.0725 1.21875 12.05Z" fill="#319F43"/>
</g>
<defs>
<clipPath id="clip0_129_398">
<rect width="16" height="16" fill="white" transform="translate(0.125 0.5)"/>
</clipPath>
</defs>
</svg>
