<svg width="17" height="17" viewBox="0 0 17 17" fill="none" xmlns="http://www.w3.org/2000/svg">
<path d="M11.1566 10.2708C11.0157 10.2708 10.8806 10.3268 10.7809 10.4264C10.6813 10.526 10.6253 10.6611 10.6253 10.802C10.6253 10.9429 10.6813 11.0781 10.7809 11.1777C10.8806 11.2773 11.0157 11.3333 11.1566 11.3333H12.9274C13.0683 11.3333 13.2034 11.2773 13.3031 11.1777C13.4027 11.0781 13.4587 10.9429 13.4587 10.802C13.4587 10.6611 13.4027 10.526 13.3031 10.4264C13.2034 10.3268 13.0683 10.2708 12.9274 10.2708H11.1566ZM1.41699 5.84371C1.41699 5.23316 1.65953 4.64761 2.09126 4.21589C2.52298 3.78417 3.10853 3.54163 3.71908 3.54163H13.2816C13.5839 3.54163 13.8832 3.60117 14.1625 3.71686C14.4418 3.83255 14.6956 4.00212 14.9094 4.21589C15.1232 4.42966 15.2927 4.68344 15.4084 4.96274C15.5241 5.24204 15.5837 5.5414 15.5837 5.84371V11.1562C15.5837 11.4585 15.5241 11.7579 15.4084 12.0372C15.2927 12.3165 15.1232 12.5703 14.9094 12.784C14.6956 12.9978 14.4418 13.1674 14.1625 13.2831C13.8832 13.3987 13.5839 13.4583 13.2816 13.4583H3.71908C3.10853 13.4583 2.52298 13.2158 2.09126 12.784C1.65953 12.3523 1.41699 11.7668 1.41699 11.1562V5.84371ZM14.5212 6.72913V5.84371C14.5212 5.51495 14.3906 5.19966 14.1581 4.96719C13.9256 4.73472 13.6103 4.60413 13.2816 4.60413H3.71908C3.39032 4.60413 3.07502 4.73472 2.84256 4.96719C2.61009 5.19966 2.47949 5.51495 2.47949 5.84371V6.72913H14.5212ZM2.47949 7.79163V11.1562C2.47949 11.8405 3.03483 12.3958 3.71908 12.3958H13.2816C13.6103 12.3958 13.9256 12.2652 14.1581 12.0327C14.3906 11.8003 14.5212 11.485 14.5212 11.1562V7.79163H2.47949Z" fill="black"/>
</svg>
