<svg width="17" height="17" viewBox="0 0 17 17" fill="none" xmlns="http://www.w3.org/2000/svg">
<path d="M8.49824 1.41663C6.36757 1.41663 4.98632 2.84675 3.3529 3.36808C2.68849 3.58058 2.35628 3.68613 2.2217 3.83558C2.08711 3.98433 2.04815 4.20321 1.96953 4.63954C1.12661 9.31171 2.96828 13.6311 7.35994 15.3127C7.83099 15.4933 8.06686 15.5833 8.50036 15.5833C8.93386 15.5833 9.17044 15.4926 9.64219 15.312C14.0332 13.6311 15.8727 9.31171 15.0298 4.63954C14.9512 4.20321 14.9115 3.98433 14.7769 3.83488C14.6423 3.68542 14.3108 3.57988 13.6464 3.36808C12.0123 2.84675 10.6289 1.41663 8.49824 1.41663Z" stroke="black" stroke-width="1.5" stroke-linecap="round" stroke-linejoin="round"/>
<path d="M6.375 9.20833C6.375 9.20833 7.08333 9.20833 7.79167 10.625C7.79167 10.625 10.042 7.08333 12.0417 6.375" stroke="black" stroke-width="1.5" stroke-linecap="round" stroke-linejoin="round"/>
</svg>
