<svg width="21" height="20" viewBox="0 0 21 20" fill="none" xmlns="http://www.w3.org/2000/svg">
<path d="M13.6365 3.33325C14.1007 3.33327 14.5557 3.46253 14.9506 3.70656C15.3455 3.95059 15.6647 4.29975 15.8723 4.71492L17.0248 7.01909C17.2281 6.93575 17.4306 6.85159 17.6273 6.75409C17.8251 6.65529 18.0541 6.63912 18.2638 6.70914C18.4735 6.77915 18.6469 6.92961 18.7457 7.12742C18.8444 7.32523 18.8606 7.55418 18.7906 7.76391C18.7206 7.97363 18.5701 8.14696 18.3723 8.24575C17.9607 8.45075 17.7723 8.51409 17.7723 8.51409L18.569 10.1083C18.7432 10.4558 18.8332 10.8383 18.8332 11.2266V13.3333C18.8331 13.685 18.7589 14.0328 18.6153 14.3538C18.4717 14.6749 18.262 14.9621 17.9998 15.1966V16.2499C17.9998 16.5814 17.8681 16.8994 17.6337 17.1338C17.3993 17.3682 17.0813 17.4999 16.7498 17.4999C16.4183 17.4999 16.1004 17.3682 15.8659 17.1338C15.6315 16.8994 15.4998 16.5814 15.4998 16.2499V15.8333H5.49982V16.2499C5.49982 16.5814 5.36812 16.8994 5.1337 17.1338C4.89928 17.3682 4.58134 17.4999 4.24982 17.4999C3.9183 17.4999 3.60035 17.3682 3.36593 17.1338C3.13151 16.8994 2.99982 16.5814 2.99982 16.2499V15.1966C2.48815 14.7383 2.16648 14.0733 2.16648 13.3333V11.2266C2.16664 10.8386 2.25708 10.456 2.43065 10.1091L3.22732 8.51409C3.02541 8.43054 2.82588 8.34134 2.62898 8.24659C2.53076 8.19785 2.44311 8.13021 2.37108 8.04755C2.29904 7.96488 2.24403 7.8688 2.20919 7.76484C2.17436 7.66087 2.16038 7.55104 2.16807 7.44166C2.17575 7.33228 2.20495 7.22549 2.25398 7.12742C2.3548 6.93048 2.5291 6.78116 2.73917 6.71176C2.94924 6.64236 3.17819 6.65846 3.37648 6.75659C3.57315 6.85103 3.77259 6.93853 3.97482 7.01909L5.12732 4.71492C5.33497 4.29975 5.65412 3.95059 6.04901 3.70656C6.44391 3.46253 6.89894 3.33327 7.36315 3.33325H13.6365ZM16.1948 9.08659C14.7781 9.53409 12.7623 9.99992 10.4998 9.99992C8.23732 9.99992 6.22148 9.53325 4.80482 9.08659L3.92148 10.8533C3.8634 10.9691 3.83316 11.097 3.83315 11.2266V13.3333C3.83315 13.5543 3.92095 13.7662 4.07723 13.9225C4.23351 14.0788 4.44547 14.1666 4.66648 14.1666H16.3331C16.5542 14.1666 16.7661 14.0788 16.9224 13.9225C17.0787 13.7662 17.1665 13.5543 17.1665 13.3333V11.2266C17.1663 11.0972 17.1361 10.9697 17.0781 10.8541L16.1948 9.08659ZM6.74982 10.8333C7.08134 10.8333 7.39928 10.9649 7.6337 11.1994C7.86812 11.4338 7.99982 11.7517 7.99982 12.0833C7.99982 12.4148 7.86812 12.7327 7.6337 12.9671C7.39928 13.2016 7.08134 13.3333 6.74982 13.3333C6.4183 13.3333 6.10035 13.2016 5.86593 12.9671C5.63151 12.7327 5.49982 12.4148 5.49982 12.0833C5.49982 11.7517 5.63151 11.4338 5.86593 11.1994C6.10035 10.9649 6.4183 10.8333 6.74982 10.8333ZM14.2498 10.8333C14.5813 10.8333 14.8993 10.9649 15.1337 11.1994C15.3681 11.4338 15.4998 11.7517 15.4998 12.0833C15.4998 12.4148 15.3681 12.7327 15.1337 12.9671C14.8993 13.2016 14.5813 13.3333 14.2498 13.3333C13.9183 13.3333 13.6004 13.2016 13.3659 12.9671C13.1315 12.7327 12.9998 12.4148 12.9998 12.0833C12.9998 11.7517 13.1315 11.4338 13.3659 11.1994C13.6004 10.9649 13.9183 10.8333 14.2498 10.8333ZM13.6365 4.99992H7.36315C7.20843 5 7.05679 5.04315 6.92521 5.12455C6.79363 5.20594 6.68731 5.32235 6.61815 5.46075L5.55982 7.57492C6.84982 7.96242 8.58815 8.33325 10.4998 8.33325C12.4115 8.33325 14.1498 7.96242 15.439 7.57492L14.3815 5.46075C14.3123 5.32235 14.206 5.20594 14.0744 5.12455C13.9428 5.04315 13.7912 5 13.6365 4.99992Z" fill="black"/>
</svg>
