<svg width="40" height="30" viewBox="0 0 40 30" fill="none" xmlns="http://www.w3.org/2000/svg">
<path d="M7.66432 29.9586V26.4341H10.484L13.9644 14.8471C14.1994 14.0835 14.6329 13.4743 15.265 13.0197C15.8971 12.565 16.5943 12.3371 17.3568 12.3359H22.6436C23.4073 12.3359 24.1051 12.5638 24.7372 13.0197C25.3693 13.4755 25.8022 14.0847 26.036 14.8471L29.5165 26.4341H32.3361V29.9586H7.66432ZM18.238 8.81136V0H21.7625V8.81136H18.238ZM28.7235 13.173L26.2122 10.6617L32.4683 4.44974L34.9355 6.91692L28.7235 13.173ZM30.5739 21.1473V17.6227H39.3852V21.1473H30.5739ZM11.277 13.173L5.06497 6.91692L7.53215 4.44974L13.7882 10.6617L11.277 13.173ZM0.615234 21.1473V17.6227H9.42659V21.1473H0.615234Z" fill="black"/>
</svg>
