<svg width="25" height="24" viewBox="0 0 25 24" fill="none" xmlns="http://www.w3.org/2000/svg">
<path d="M8.07888 16.171C5.92828 14.0163 4.27439 11.4177 3.23288 8.55702C2.65988 6.99302 3.18488 5.27502 4.36288 4.09702L5.09188 3.36902C5.28786 3.17264 5.52066 3.01684 5.77693 2.91053C6.03321 2.80423 6.30793 2.74951 6.58538 2.74951C6.86282 2.74951 7.13755 2.80423 7.39382 2.91053C7.6501 3.01684 7.88289 3.17264 8.07888 3.36902L9.78588 5.07602C9.98226 5.27201 10.1381 5.5048 10.2444 5.76108C10.3507 6.01735 10.4054 6.29208 10.4054 6.56952C10.4054 6.84697 10.3507 7.12169 10.2444 7.37797C10.1381 7.63424 9.98226 7.86704 9.78588 8.06302L9.36588 8.48302C9.19776 8.6511 9.0644 8.85065 8.97342 9.07028C8.88243 9.2899 8.8356 9.5253 8.8356 9.76302C8.8356 10.0007 8.88243 10.2361 8.97342 10.4558C9.0644 10.6754 9.19776 10.8749 9.36588 11.043L13.2059 14.884C13.374 15.0521 13.5735 15.1855 13.7931 15.2765C14.0128 15.3675 14.2482 15.4143 14.4859 15.4143C14.7236 15.4143 14.959 15.3675 15.1786 15.2765C15.3982 15.1855 15.5978 15.0521 15.7659 14.884L16.1869 14.464C16.3829 14.2676 16.6157 14.1118 16.8719 14.0055C17.1282 13.8992 17.4029 13.8445 17.6804 13.8445C17.9578 13.8445 18.2325 13.8992 18.4888 14.0055C18.7451 14.1118 18.9779 14.2676 19.1739 14.464L20.8809 16.171C21.0773 16.367 21.2331 16.5998 21.3394 16.8561C21.4457 17.1124 21.5004 17.3871 21.5004 17.6645C21.5004 17.942 21.4457 18.2167 21.3394 18.473C21.2331 18.7292 21.0773 18.962 20.8809 19.158L20.1529 19.886C18.9749 21.065 17.2569 21.59 15.6929 21.017C12.8322 19.9755 10.2336 18.3216 8.07888 16.171Z" stroke="#F79394" stroke-width="1.5" stroke-linejoin="round"/>
</svg>
