<svg width="17" height="17" viewBox="0 0 17 17" fill="none" xmlns="http://www.w3.org/2000/svg">
<g clip-path="url(#clip0_202_414)">
<path d="M6.48289 3.83063C7.38035 2.22129 7.82872 1.41663 8.49952 1.41663C9.17031 1.41663 9.61868 2.22129 10.5161 3.83063L10.7485 4.24713C11.0035 4.70471 11.131 4.9335 11.3293 5.08438C11.5276 5.23525 11.7756 5.29121 12.2714 5.40313L12.7219 5.50513C14.4644 5.89967 15.3349 6.09658 15.5425 6.76313C15.7493 7.42896 15.1557 8.12383 13.9678 9.51288L13.6604 9.872C13.3233 10.2665 13.154 10.4642 13.0782 10.7078C13.0024 10.9522 13.0279 11.2157 13.0789 11.742L13.1256 12.2215C13.3048 14.0753 13.3948 15.0018 12.8522 15.4133C12.3096 15.8248 11.4936 15.4494 9.86306 14.6986L9.44018 14.5045C8.97693 14.2906 8.74531 14.1843 8.49952 14.1843C8.25372 14.1843 8.0221 14.2906 7.55885 14.5045L7.13668 14.6986C5.50539 15.4494 4.68939 15.8248 4.14752 15.414C3.60422 15.0018 3.69418 14.0753 3.87339 12.2215L3.92014 11.7427C3.97114 11.2157 3.99664 10.9522 3.92014 10.7085C3.84506 10.4642 3.67577 10.2665 3.3386 9.87271L3.03118 9.51288C1.84331 8.12454 1.24972 7.42967 1.45656 6.76313C1.66339 6.09658 2.53535 5.89896 4.27785 5.50513L4.72835 5.40313C5.22347 5.29121 5.47068 5.23525 5.66972 5.08438C5.86877 4.9335 5.99556 4.70471 6.25056 4.24713L6.48289 3.83063Z" stroke="black" stroke-width="1.5"/>
</g>
<defs>
<clipPath id="clip0_202_414">
<rect width="17" height="17" fill="white"/>
</clipPath>
</defs>
</svg>
