<svg width="17" height="17" viewBox="0 0 17 17" fill="none" xmlns="http://www.w3.org/2000/svg">
<path d="M2.83366 5.66667C2.83366 4.16377 3.43068 2.72243 4.49339 1.65973C5.55609 0.597022 6.99743 0 8.50033 0C10.0032 0 11.4446 0.597022 12.5073 1.65973C13.57 2.72243 14.167 4.16377 14.167 5.66667V8.99371L15.5837 11.1187V14.1667H11.6092C11.4481 14.8705 11.0528 15.4989 10.4882 15.9489C9.92347 16.399 9.22276 16.644 8.50068 16.644C7.7786 16.644 7.07789 16.399 6.5132 15.9489C5.94851 15.4989 5.55328 14.8705 5.39216 14.1667H1.41699V11.1187L2.83366 8.99371V5.66667ZM6.87683 14.1667C7.01451 14.4828 7.24148 14.7518 7.52987 14.9407C7.81827 15.1297 8.15555 15.2303 8.50033 15.2303C8.8451 15.2303 9.18238 15.1297 9.47078 14.9407C9.75917 14.7518 9.98614 14.4828 10.1238 14.1667H6.87683ZM8.50033 1.41667C7.37316 1.41667 6.29215 1.86443 5.49512 2.66146C4.69809 3.45849 4.25033 4.5395 4.25033 5.66667V9.42296L2.83366 11.548V12.75H14.167V11.548L12.7503 9.42296V5.66667C12.7503 4.5395 12.3026 3.45849 11.5055 2.66146C10.7085 1.86443 9.6275 1.41667 8.50033 1.41667Z" fill="black"/>
</svg>
