<svg width="17" height="17" viewBox="0 0 17 17" fill="none" xmlns="http://www.w3.org/2000/svg">
<path d="M8.5 2.12502C7.18497 2.12502 5.9238 2.64741 4.99393 3.57728C4.06406 4.50715 3.54167 5.76832 3.54167 7.08335C3.54167 9.1106 4.80392 11.0663 6.18942 12.5814C6.89785 13.3533 7.67085 14.0632 8.5 14.7036C8.62372 14.6087 8.76893 14.493 8.93562 14.3565C9.60132 13.8099 10.2278 13.2172 10.8106 12.5828C12.1961 11.0663 13.4583 9.11131 13.4583 7.08335C13.4583 5.76832 12.9359 4.50715 12.0061 3.57728C11.0762 2.64741 9.81503 2.12502 8.5 2.12502ZM8.5 16.4433L8.09837 16.167L8.09625 16.1656L8.092 16.1621L8.07783 16.1521L8.02471 16.1146L7.83346 15.9751C6.86436 15.2467 5.96408 14.4311 5.14392 13.5384C3.69608 11.9531 2.125 9.65885 2.125 7.08264C2.125 5.39189 2.79665 3.77038 3.99219 2.57484C5.18774 1.37929 6.80924 0.707642 8.5 0.707642C10.1908 0.707642 11.8123 1.37929 13.0078 2.57484C14.2033 3.77038 14.875 5.39189 14.875 7.08264C14.875 9.65885 13.3039 11.9538 11.8561 13.537C11.0361 14.4297 10.1361 15.2453 9.16725 15.9736C9.08654 16.0339 9.00507 16.0932 8.92287 16.1514L8.908 16.1613L8.90375 16.1649L8.90233 16.1656L8.5 16.4433ZM8.5 5.66668C8.12428 5.66668 7.76394 5.81594 7.49827 6.08162C7.23259 6.34729 7.08333 6.70763 7.08333 7.08335C7.08333 7.45907 7.23259 7.81941 7.49827 8.08508C7.76394 8.35076 8.12428 8.50002 8.5 8.50002C8.87572 8.50002 9.23606 8.35076 9.50173 8.08508C9.76741 7.81941 9.91667 7.45907 9.91667 7.08335C9.91667 6.70763 9.76741 6.34729 9.50173 6.08162C9.23606 5.81594 8.87572 5.66668 8.5 5.66668ZM5.66667 7.08335C5.66667 6.3319 5.96518 5.61123 6.49653 5.07988C7.02788 4.54853 7.74855 4.25002 8.5 4.25002C9.25145 4.25002 9.97212 4.54853 10.5035 5.07988C11.0348 5.61123 11.3333 6.3319 11.3333 7.08335C11.3333 7.8348 11.0348 8.55547 10.5035 9.08682C9.97212 9.61817 9.25145 9.91668 8.5 9.91668C7.74855 9.91668 7.02788 9.61817 6.49653 9.08682C5.96518 8.55547 5.66667 7.8348 5.66667 7.08335Z" fill="black"/>
</svg>
